<svg xmlns="http://www.w3.org/2000/svg" viewBox="0 0 32 32" width="18" height="18" fill="currentColor">
  <path d="M8.7 7.3 7.3 8.7l4 4a8.2 8.2 0 0 0-1.1 4.3 8 8 0 0 0 9.6 7.8l4.5 4.5 1.4-1.4zM16 22a6 6 0 0 1-6-6 6.07 6.07 0 0 1 .7-2.8l8.1 8.1a5.8 5.8 0 0 1-2.8.7z"/>
  <path d="m29.3 26.9-4.1-4.1a13 13 0 0 0 4.6-6.8C28.4 12.5 23 8 16 8a13.8 13.8 0 0 0-3 .3l1.7 1.7A11.6 11.6 0 0 1 16 10c6.2 0 10.8 4.2 12 6-1.1 1.5-3.8 4.3-7.7 5.4l1.5 1.5a14.2 14.2 0 0 0 7.5-6.8C28.6 15.1 23.6 10 16 10a11.3 11.3 0 0 0-2.5.3l1.8 1.8A9.1 9.1 0 0 1 16 12c6.6 0 11.2 4.4 12.4 6-.9 1.3-3.1 3.6-6 4.8l1.5 1.5c3.4-1.3 6.4-4.2 7.4-6.3a1 1 0 0 0 0-.8 18.6 18.6 0 0 0-3.6-5.2 18.9 18.9 0 0 0-26.4 0 18.6 18.6 0 0 0-3.6 5.2 1 1 0 0 0 0 .8c1.4 2.9 6.3 7.8 13.1 7.8a14 14 0 0 0 5.8-1.3l1.4 1.4A15.8 15.8 0 0 1 16 24C9.3 24 4.4 18.9 3.3 17a17.5 17.5 0 0 1 2.9-3.8l1.4 1.4a14 14 0 0 0-2.6 2.7 1 1 0 0 0 0 .8c1.4 2.7 6.1 7.3 11 7.3a13.9 13.9 0 0 0 5.8-1.3z"/>
</svg>
